<?xml version="1.0" standalone="no"?>
<!DOCTYPE svg PUBLIC "-//W3C//DTD SVG 20010904//EN"
 "http://www.w3.org/TR/2001/REC-SVG-20010904/DTD/svg10.dtd">
<svg version="1.0" xmlns="http://www.w3.org/2000/svg"
 width="750.000000pt" height="315.000000pt" viewBox="0 0 750.000000 315.000000"
 preserveAspectRatio="xMidYMid meet">

<g transform="translate(0.000000,315.000000) scale(0.100000,-0.100000)"
fill="#aa0000" stroke="none">
<path d="M3355 3059 c-1454 -75 -2636 -562 -2912 -1200 -36 -84 -63 -202 -63
-279 0 -131 56 -295 146 -430 92 -140 283 -312 484 -436 698 -434 1910 -675
3090 -614 1465 76 2634 547 2930 1182 229 492 -128 1008 -945 1363 -709 309
-1741 465 -2730 414z m131 -557 c22 -14 56 -92 141 -327 8 -22 27 -69 42 -105
16 -36 54 -132 86 -215 32 -82 78 -199 102 -260 24 -60 58 -150 75 -198 18
-52 39 -92 50 -98 18 -9 18 8 16 516 l-3 525 1264 0 c695 0 1266 -2 1268 -4 9
-9 -17 -43 -76 -99 l-61 -59 -1113 2 c-611 1 -1118 2 -1125 1 -11 -1 -13 -144
-11 -791 1 -435 -1 -793 -4 -796 -13 -14 -38 7 -55 48 -11 24 -38 93 -61 153
-24 61 -65 169 -92 240 -28 72 -63 159 -79 195 -16 36 -32 77 -36 93 -3 15
-10 30 -15 33 -5 3 -9 13 -9 22 0 10 -16 56 -36 102 -40 94 -68 164 -89 225
-39 110 -63 160 -76 163 -12 2 -14 -69 -11 -518 l4 -520 -1289 -2 c-708 -2
-1300 -2 -1316 0 -15 2 -27 9 -27 15 1 13 55 77 66 77 3 0 19 11 36 25 l30 25
1174 0 1174 0 0 754 c0 415 3 761 6 770 6 17 31 21 50 8z m-1308 -424 c19 -19
16 -134 -4 -142 -9 -3 -61 -6 -116 -6 -117 0 -149 -13 -180 -74 -20 -38 -31
-136 -21 -183 5 -23 7 -23 163 -23 176 0 170 2 170 -71 0 -26 -7 -46 -20 -59
-18 -18 -33 -20 -165 -20 -80 0 -145 -3 -146 -7 0 -5 -2 -41 -4 -81 l-4 -72
50 -58 51 -57 116 -5 117 -5 0 -60 0 -60 -130 -5 c-71 -3 -140 -4 -152 -2 -12
3 -51 33 -85 68 -96 98 -98 106 -98 437 0 263 1 280 21 320 36 71 64 101 125
131 33 16 66 33 74 37 25 13 224 11 238 -3z m236 -19 l26 -31 0 -351 c0 -331
1 -354 20 -384 34 -57 62 -67 189 -73 129 -6 131 -7 123 -91 l-4 -38 -131 -3
c-113 -3 -138 -1 -175 15 -66 29 -97 61 -134 135 l-33 67 -3 379 c-1 209 0
386 2 393 3 8 22 13 50 13 37 0 48 -5 70 -31z m906 21 c20 -13 21 -127 0 -140
-8 -5 -61 -10 -118 -10 -121 0 -141 -9 -178 -82 -21 -41 -24 -61 -22 -121 l3
-72 155 -3 c85 -2 159 -7 165 -13 15 -15 12 -119 -5 -129 -8 -6 -84 -10 -167
-10 l-153 0 0 -76 c0 -80 7 -103 49 -147 44 -48 72 -57 176 -57 93 0 96 -1
105 -26 6 -14 10 -43 10 -65 l0 -39 -141 0 c-133 0 -143 1 -184 26 -55 32
-101 84 -126 141 -17 40 -19 72 -19 320 0 188 4 289 12 316 18 59 110 153 173
176 55 21 238 28 265 11z m1383 -6 c66 -22 129 -82 167 -159 27 -55 31 -71 24
-97 -7 -23 -17 -34 -39 -40 -48 -12 -74 0 -100 51 -14 25 -36 58 -49 74 -24
26 -28 27 -130 27 l-105 0 -40 -42 -40 -43 -1 -272 0 -271 42 -37 c52 -44 68
-48 161 -44 75 4 111 21 145 70 16 23 35 164 26 193 -6 17 -15 18 -100 14 -91
-5 -94 -4 -118 21 -20 21 -26 37 -26 73 0 26 5 50 11 54 6 3 86 6 177 6 211 0
202 7 202 -168 0 -132 -15 -215 -48 -262 -11 -15 -45 -51 -75 -80 l-56 -52
-133 -1 c-73 -1 -141 0 -152 1 -35 3 -96 42 -134 85 -67 76 -72 104 -72 413 0
250 2 277 20 316 27 60 116 147 170 167 61 22 212 24 273 3z m456 -36 c14 -26
65 -110 113 -185 48 -76 90 -146 93 -156 10 -24 32 -21 46 6 32 60 206 326
233 355 23 25 38 32 67 32 38 0 69 -26 69 -58 0 -7 -33 -65 -72 -128 -40 -64
-86 -139 -101 -166 -16 -28 -46 -77 -68 -109 -21 -32 -39 -61 -39 -65 0 -4 -9
-17 -20 -29 -18 -19 -20 -38 -22 -227 -2 -114 -6 -209 -9 -212 -4 -4 -33 -8
-65 -9 l-59 -2 -5 215 c-4 175 -8 220 -21 240 -62 96 -110 174 -125 202 -9 18
-51 85 -92 148 -76 116 -88 153 -62 185 10 12 27 15 63 13 48 -3 51 -5 76 -50z"/>
</g>

<!-- <g transform="translate(0.000000,315.000000) scale(0.100000,-0.100000)"
fill="#aa0000" stroke="none">
<path d="M3355 3059 c-1454 -75 -2636 -562 -2912 -1200 -36 -84 -63 -202 -63
-279 0 -131 56 -295 146 -430 92 -140 283 -312 484 -436 698 -434 1910 -675
3090 -614 1465 76 2634 547 2930 1182 229 492 -128 1008 -945 1363 -709 309
-1741 465 -2730 414z" />
</g> -->
<!-- E + N-->
<!-- <g transform="translate(0.000000,315.000000) scale(0.100000,-0.100000)" fill="#aa0000" stroke="none">
    <path d="M3355 3059 c-1454 -75 -2636 -562 -2912 -1200 -36 -84 -63 -202 -63
    -279 0 -131 56 -295 146 -430 92 -140 283 -312 484 -436 698 -434 1910 -675
    3090 -614 1465 76 2634 547 2930 1182 229 492 -128 1008 -945 1363 -709 309
    -1741 465 -2730 414z m131 -557 c22 -14 56 -92 141 -327 8 -22 27 -69 42 -105
    16 -36 54 -132 86 -215 32 -82 78 -199 102 -260 24 -60 58 -150 75 -198 18
    -52 39 -92 50 -98 18 -9 18 8 16 516 l-3 525 1264 0 c695 0 1266 -2 1268 -4 9
    -9 -17 -43 -76 -99 l-61 -59 -1113 2 c-611 1 -1118 2 -1125 1 -11 -1 -13 -144
    -11 -791 1 -435 -1 -793 -4 -796 -13 -14 -38 7 -55 48 -11 24 -38 93 -61 153
    -24 61 -65 169 -92 240 -28 72 -63 159 -79 195 -16 36 -32 77 -36 93 -3 15
    -10 30 -15 33 -5 3 -9 13 -9 22 0 10 -16 56 -36 102 -40 94 -68 164 -89 225
    -39 110 -63 160 -76 163 -12 2 -14 -69 -11 -518 l4 -520 -1289 -2 c-708 -2
    -1300 -2 -1316 0 -15 2 -27 9 -27 15 1 13 55 77 66 77 3 0 19 11 36 25 l30 25
    1174 0 1174 0 0 754 c0 415 3 761 6 770 6 17 31 21 50 8z m-1308 -424 c19 -19
    16 -134 -4 -142 -9 -3 -61 -6 -116 -6 -117 0 -149 -13 -180 -74 -20 -38 -31
    -136 -21 -183 5 -23 7 -23 163 -23 176 0 170 2 170 -71 0 -26 -7 -46 -20 -59
    -18 -18 -33 -20 -165 -20 -80 0 -145 -3 -146 -7 0 -5 -2 -41 -4 -81 l-4 -72
    50 -58 51 -57 116 -5 117 -5 0 -60 0 -60 -130 -5 c-71 -3 -140 -4 -152 -2 -12
    3 -51 33 -85 68 -96 98 -98 106 -98 437 0 263 1 280 21 320 36 71 64 101 125
    131 33 16 66 33 74 37 25 13 224 11 238 -3z"/>
</g> -->

<!-- N -->
<!-- <g transform="translate(0.000000,315.000000) scale(0.100000,-0.100000)" fill="#aa0000" stroke="none">
    <path d="M3355 3059 c-1454 -75 -2636 -562 -2912 -1200 -36 -84 -63 -202 -63
    -279 0 -131 56 -295 146 -430 92 -140 283 -312 484 -436 698 -434 1910 -675
    3090 -614 1465 76 2634 547 2930 1182 229 492 -128 1008 -945 1363 -709 309
    -1741 465 -2730 414z  m131 -557 c22 -14 56 -92 141 -327 8 -22 27 -69 42 -105
    16 -36 54 -132 86 -215 32 -82 78 -199 102 -260 24 -60 58 -150 75 -198 18
    -52 39 -92 50 -98 18 -9 18 8 16 516 l-3 525 1264 0 c695 0 1266 -2 1268 -4 9
    -9 -17 -43 -76 -99 l-61 -59 -1113 2 c-611 1 -1118 2 -1125 1 -11 -1 -13 -144
    -11 -791 1 -435 -1 -793 -4 -796 -13 -14 -38 7 -55 48 -11 24 -38 93 -61 153
    -24 61 -65 169 -92 240 -28 72 -63 159 -79 195 -16 36 -32 77 -36 93 -3 15
    -10 30 -15 33 -5 3 -9 13 -9 22 0 10 -16 56 -36 102 -40 94 -68 164 -89 225
    -39 110 -63 160 -76 163 -12 2 -14 -69 -11 -518 l4 -520 -1289 -2 c-708 -2
    -1300 -2 -1316 0 -15 2 -27 9 -27 15 1 13 55 77 66 77 3 0 19 11 36 25 l30 25
    1174 0 1174 0 0 754 c0 415 3 761 6 770 6 17 31 21 50 8z"/>
</g> -->

<!-- E + N-->
<!-- <g transform="translate(0.000000,315.000000) scale(0.100000,-0.100000)" fill="#aa0000" stroke="none">
    <path d="M3355 3059 c-1454 -75 -2636 -562 -2912 -1200 -36 -84 -63 -202 -63
    -279 0 -131 56 -295 146 -430 92 -140 283 -312 484 -436 698 -434 1910 -675
    3090 -614 1465 76 2634 547 2930 1182 229 492 -128 1008 -945 1363 -709 309
    -1741 465 -2730 414z "/>
</g> -->

<!-- E+L+N -->
<!-- <g transform="translate(0.000000,315.000000) scale(0.100000,-0.100000)" fill="#aa0000" stroke="none">
    <path d="M3355 3059 c-1454 -75 -2636 -562 -2912 -1200 -36 -84 -63 -202 -63
    -279 0 -131 56 -295 146 -430 92 -140 283 -312 484 -436 698 -434 1910 -675
    3090 -614 1465 76 2634 547 2930 1182 229 492 -128 1008 -945 1363 -709 309
    -1741 465 -2730 414z m131 -557 c22 -14 56 -92 141 -327 8 -22 27 -69 42 -105
    16 -36 54 -132 86 -215 32 -82 78 -199 102 -260 24 -60 58 -150 75 -198 18
    -52 39 -92 50 -98 18 -9 18 8 16 516 l-3 525 1264 0 c695 0 1266 -2 1268 -4 9
    -9 -17 -43 -76 -99 l-61 -59 -1113 2 c-611 1 -1118 2 -1125 1 -11 -1 -13 -144
    -11 -791 1 -435 -1 -793 -4 -796 -13 -14 -38 7 -55 48 -11 24 -38 93 -61 153
    -24 61 -65 169 -92 240 -28 72 -63 159 -79 195 -16 36 -32 77 -36 93 -3 15
    -10 30 -15 33 -5 3 -9 13 -9 22 0 10 -16 56 -36 102 -40 94 -68 164 -89 225
    -39 110 -63 160 -76 163 -12 2 -14 -69 -11 -518 l4 -520 -1289 -2 c-708 -2
    -1300 -2 -1316 0 -15 2 -27 9 -27 15 1 13 55 77 66 77 3 0 19 11 36 25 l30 25
    1174 0 1174 0 0 754 c0 415 3 761 6 770 6 17 31 21 50 8z m-1308 -424 c19 -19
    16 -134 -4 -142 -9 -3 -61 -6 -116 -6 -117 0 -149 -13 -180 -74 -20 -38 -31
    -136 -21 -183 5 -23 7 -23 163 -23 176 0 170 2 170 -71 0 -26 -7 -46 -20 -59
    -18 -18 -33 -20 -165 -20 -80 0 -145 -3 -146 -7 0 -5 -2 -41 -4 -81 l-4 -72
    50 -58 51 -57 116 -5 117 -5 0 -60 0 -60 -130 -5 c-71 -3 -140 -4 -152 -2 -12
    3 -51 33 -85 68 -96 98 -98 106 -98 437 0 263 1 280 21 320 36 71 64 101 125
    131 33 16 66 33 74 37 25 13 224 11 238 -3z m236 -19 l26 -31 0 -351 c0 -331
    1 -354 20 -384 34 -57 62 -67 189 -73 129 -6 131 -7 123 -91 l-4 -38 -131 -3
    c-113 -3 -138 -1 -175 15 -66 29 -97 61 -134 135 l-33 67 -3 379 c-1 209 0
    386 2 393 3 8 22 13 50 13 37 0 48 -5 70 -31z"/>
</g> -->

<!-- E+L+E+N -->
<!-- <g transform="translate(0.000000,315.000000) scale(0.100000,-0.100000)" fill="#aa0000" stroke="none">
    <path d="M3355 3059 c-1454 -75 -2636 -562 -2912 -1200 -36 -84 -63 -202 -63
    -279 0 -131 56 -295 146 -430 92 -140 283 -312 484 -436 698 -434 1910 -675
    3090 -614 1465 76 2634 547 2930 1182 229 492 -128 1008 -945 1363 -709 309
    -1741 465 -2730 414z m131 -557 c22 -14 56 -92 141 -327 8 -22 27 -69 42 -105
    16 -36 54 -132 86 -215 32 -82 78 -199 102 -260 24 -60 58 -150 75 -198 18
    -52 39 -92 50 -98 18 -9 18 8 16 516 l-3 525 1264 0 c695 0 1266 -2 1268 -4 9
    -9 -17 -43 -76 -99 l-61 -59 -1113 2 c-611 1 -1118 2 -1125 1 -11 -1 -13 -144
    -11 -791 1 -435 -1 -793 -4 -796 -13 -14 -38 7 -55 48 -11 24 -38 93 -61 153
    -24 61 -65 169 -92 240 -28 72 -63 159 -79 195 -16 36 -32 77 -36 93 -3 15
    -10 30 -15 33 -5 3 -9 13 -9 22 0 10 -16 56 -36 102 -40 94 -68 164 -89 225
    -39 110 -63 160 -76 163 -12 2 -14 -69 -11 -518 l4 -520 -1289 -2 c-708 -2
    -1300 -2 -1316 0 -15 2 -27 9 -27 15 1 13 55 77 66 77 3 0 19 11 36 25 l30 25
    1174 0 1174 0 0 754 c0 415 3 761 6 770 6 17 31 21 50 8z m-1308 -424 c19 -19
    16 -134 -4 -142 -9 -3 -61 -6 -116 -6 -117 0 -149 -13 -180 -74 -20 -38 -31
    -136 -21 -183 5 -23 7 -23 163 -23 176 0 170 2 170 -71 0 -26 -7 -46 -20 -59
    -18 -18 -33 -20 -165 -20 -80 0 -145 -3 -146 -7 0 -5 -2 -41 -4 -81 l-4 -72
    50 -58 51 -57 116 -5 117 -5 0 -60 0 -60 -130 -5 c-71 -3 -140 -4 -152 -2 -12
    3 -51 33 -85 68 -96 98 -98 106 -98 437 0 263 1 280 21 320 36 71 64 101 125
    131 33 16 66 33 74 37 25 13 224 11 238 -3z m236 -19 l26 -31 0 -351 c0 -331
    1 -354 20 -384 34 -57 62 -67 189 -73 129 -6 131 -7 123 -91 l-4 -38 -131 -3
    c-113 -3 -138 -1 -175 15 -66 29 -97 61 -134 135 l-33 67 -3 379 c-1 209 0
    386 2 393 3 8 22 13 50 13 37 0 48 -5 70 -31z m906 21 c20 -13 21 -127 0 -140
    -8 -5 -61 -10 -118 -10 -121 0 -141 -9 -178 -82 -21 -41 -24 -61 -22 -121 l3
    -72 155 -3 c85 -2 159 -7 165 -13 15 -15 12 -119 -5 -129 -8 -6 -84 -10 -167
    -10 l-153 0 0 -76 c0 -80 7 -103 49 -147 44 -48 72 -57 176 -57 93 0 96 -1
    105 -26 6 -14 10 -43 10 -65 l0 -39 -141 0 c-133 0 -143 1 -184 26 -55 32
    -101 84 -126 141 -17 40 -19 72 -19 320 0 188 4 289 12 316 18 59 110 153 173
    176 55 21 238 28 265 11z"/>
</g> -->

<!-- E+L+E+N+G -->
<!-- <g transform="translate(0.000000,315.000000) scale(0.100000,-0.100000)" fill="#aa0000" stroke="none">
    <path d="M3355 3059 c-1454 -75 -2636 -562 -2912 -1200 -36 -84 -63 -202 -63
    -279 0 -131 56 -295 146 -430 92 -140 283 -312 484 -436 698 -434 1910 -675
    3090 -614 1465 76 2634 547 2930 1182 229 492 -128 1008 -945 1363 -709 309
    -1741 465 -2730 414z m131 -557 c22 -14 56 -92 141 -327 8 -22 27 -69 42 -105
    16 -36 54 -132 86 -215 32 -82 78 -199 102 -260 24 -60 58 -150 75 -198 18
    -52 39 -92 50 -98 18 -9 18 8 16 516 l-3 525 1264 0 c695 0 1266 -2 1268 -4 9
    -9 -17 -43 -76 -99 l-61 -59 -1113 2 c-611 1 -1118 2 -1125 1 -11 -1 -13 -144
    -11 -791 1 -435 -1 -793 -4 -796 -13 -14 -38 7 -55 48 -11 24 -38 93 -61 153
    -24 61 -65 169 -92 240 -28 72 -63 159 -79 195 -16 36 -32 77 -36 93 -3 15
    -10 30 -15 33 -5 3 -9 13 -9 22 0 10 -16 56 -36 102 -40 94 -68 164 -89 225
    -39 110 -63 160 -76 163 -12 2 -14 -69 -11 -518 l4 -520 -1289 -2 c-708 -2
    -1300 -2 -1316 0 -15 2 -27 9 -27 15 1 13 55 77 66 77 3 0 19 11 36 25 l30 25
    1174 0 1174 0 0 754 c0 415 3 761 6 770 6 17 31 21 50 8z m-1308 -424 c19 -19
    16 -134 -4 -142 -9 -3 -61 -6 -116 -6 -117 0 -149 -13 -180 -74 -20 -38 -31
    -136 -21 -183 5 -23 7 -23 163 -23 176 0 170 2 170 -71 0 -26 -7 -46 -20 -59
    -18 -18 -33 -20 -165 -20 -80 0 -145 -3 -146 -7 0 -5 -2 -41 -4 -81 l-4 -72
    50 -58 51 -57 116 -5 117 -5 0 -60 0 -60 -130 -5 c-71 -3 -140 -4 -152 -2 -12
    3 -51 33 -85 68 -96 98 -98 106 -98 437 0 263 1 280 21 320 36 71 64 101 125
    131 33 16 66 33 74 37 25 13 224 11 238 -3z m236 -19 l26 -31 0 -351 c0 -331
    1 -354 20 -384 34 -57 62 -67 189 -73 129 -6 131 -7 123 -91 l-4 -38 -131 -3
    c-113 -3 -138 -1 -175 15 -66 29 -97 61 -134 135 l-33 67 -3 379 c-1 209 0
    386 2 393 3 8 22 13 50 13 37 0 48 -5 70 -31z m906 21 c20 -13 21 -127 0 -140
    -8 -5 -61 -10 -118 -10 -121 0 -141 -9 -178 -82 -21 -41 -24 -61 -22 -121 l3
    -72 155 -3 c85 -2 159 -7 165 -13 15 -15 12 -119 -5 -129 -8 -6 -84 -10 -167
    -10 l-153 0 0 -76 c0 -80 7 -103 49 -147 44 -48 72 -57 176 -57 93 0 96 -1
    105 -26 6 -14 10 -43 10 -65 l0 -39 -141 0 c-133 0 -143 1 -184 26 -55 32
    -101 84 -126 141 -17 40 -19 72 -19 320 0 188 4 289 12 316 18 59 110 153 173
    176 55 21 238 28 265 11z m1383 -6 c66 -22 129 -82 167 -159 27 -55 31 -71 24
    -97 -7 -23 -17 -34 -39 -40 -48 -12 -74 0 -100 51 -14 25 -36 58 -49 74 -24
    26 -28 27 -130 27 l-105 0 -40 -42 -40 -43 -1 -272 0 -271 42 -37 c52 -44 68
    -48 161 -44 75 4 111 21 145 70 16 23 35 164 26 193 -6 17 -15 18 -100 14 -91
    -5 -94 -4 -118 21 -20 21 -26 37 -26 73 0 26 5 50 11 54 6 3 86 6 177 6 211 0
    202 7 202 -168 0 -132 -15 -215 -48 -262 -11 -15 -45 -51 -75 -80 l-56 -52
    -133 -1 c-73 -1 -141 0 -152 1 -35 3 -96 42 -134 85 -67 76 -72 104 -72 413 0
    250 2 277 20 316 27 60 116 147 170 167 61 22 212 24 273 3z"/>
</g>

<g  transform="translate(0.000000,315.000000) scale(0.100000,-0.100000)"
fill="#aa0000" stroke="none">
<path d="M3355 3059 c-1454 -75 -2636 -562 -2912 -1200 -36 -84 -63 -202 -63
-279 0 -131 56 -295 146 -430 92 -140 283 -312 484 -436 698 -434 1910 -675
3090 -614 1465 76 2634 547 2930 1182 229 492 -128 1008 -945 1363 -709 309
-1741 465 -2730 414z m131 -557 c22 -14 56 -92 141 -327 8 -22 27 -69 42 -105
16 -36 54 -132 86 -215 32 -82 78 -199 102 -260 24 -60 58 -150 75 -198 18
-52 39 -92 50 -98 18 -9 18 8 16 516 l-3 525 1264 0 c695 0 1266 -2 1268 -4 9
-9 -17 -43 -76 -99 l-61 -59 -1113 2 c-611 1 -1118 2 -1125 1 -11 -1 -13 -144
-11 -791 1 -435 -1 -793 -4 -796 -13 -14 -38 7 -55 48 -11 24 -38 93 -61 153
-24 61 -65 169 -92 240 -28 72 -63 159 -79 195 -16 36 -32 77 -36 93 -3 15
-10 30 -15 33 -5 3 -9 13 -9 22 0 10 -16 56 -36 102 -40 94 -68 164 -89 225
-39 110 -63 160 -76 163 -12 2 -14 -69 -11 -518 l4 -520 -1289 -2 c-708 -2
-1300 -2 -1316 0 -15 2 -27 9 -27 15 1 13 55 77 66 77 3 0 19 11 36 25 l30 25
1174 0 1174 0 0 754 c0 415 3 761 6 770 6 17 31 21 50 8z m-1308 -424 c19 -19
16 -134 -4 -142 -9 -3 -61 -6 -116 -6 -117 0 -149 -13 -180 -74 -20 -38 -31
-136 -21 -183 5 -23 7 -23 163 -23 176 0 170 2 170 -71 0 -26 -7 -46 -20 -59
-18 -18 -33 -20 -165 -20 -80 0 -145 -3 -146 -7 0 -5 -2 -41 -4 -81 l-4 -72
50 -58 51 -57 116 -5 117 -5 0 -60 0 -60 -130 -5 c-71 -3 -140 -4 -152 -2 -12
3 -51 33 -85 68 -96 98 -98 106 -98 437 0 263 1 280 21 320 36 71 64 101 125
131 33 16 66 33 74 37 25 13 224 11 238 -3z m236 -19 l26 -31 0 -351 c0 -331
1 -354 20 -384 34 -57 62 -67 189 -73 129 -6 131 -7 123 -91 l-4 -38 -131 -3
c-113 -3 -138 -1 -175 15 -66 29 -97 61 -134 135 l-33 67 -3 379 c-1 209 0
386 2 393 3 8 22 13 50 13 37 0 48 -5 70 -31z m906 21 c20 -13 21 -127 0 -140
-8 -5 -61 -10 -118 -10 -121 0 -141 -9 -178 -82 -21 -41 -24 -61 -22 -121 l3
-72 155 -3 c85 -2 159 -7 165 -13 15 -15 12 -119 -5 -129 -8 -6 -84 -10 -167
-10 l-153 0 0 -76 c0 -80 7 -103 49 -147 44 -48 72 -57 176 -57 93 0 96 -1
105 -26 6 -14 10 -43 10 -65 l0 -39 -141 0 c-133 0 -143 1 -184 26 -55 32
-101 84 -126 141 -17 40 -19 72 -19 320 0 188 4 289 12 316 18 59 110 153 173
176 55 21 238 28 265 11z m1383 -6 c66 -22 129 -82 167 -159 27 -55 31 -71 24
-97 -7 -23 -17 -34 -39 -40 -48 -12 -74 0 -100 51 -14 25 -36 58 -49 74 -24
26 -28 27 -130 27 l-105 0 -40 -42 -40 -43 -1 -272 0 -271 42 -37 c52 -44 68
-48 161 -44 75 4 111 21 145 70 16 23 35 164 26 193 -6 17 -15 18 -100 14 -91
-5 -94 -4 -118 21 -20 21 -26 37 -26 73 0 26 5 50 11 54 6 3 86 6 177 6 211 0
202 7 202 -168 0 -132 -15 -215 -48 -262 -11 -15 -45 -51 -75 -80 l-56 -52
-133 -1 c-73 -1 -141 0 -152 1 -35 3 -96 42 -134 85 -67 76 -72 104 -72 413 0
250 2 277 20 316 27 60 116 147 170 167 61 22 212 24 273 3z m456 -36 c14 -26
65 -110 113 -185 48 -76 90 -146 93 -156 10 -24 32 -21 46 6 32 60 206 326
233 355 23 25 38 32 67 32 38 0 69 -26 69 -58 0 -7 -33 -65 -72 -128 -40 -64
-86 -139 -101 -166 -16 -28 -46 -77 -68 -109 -21 -32 -39 -61 -39 -65 0 -4 -9
-17 -20 -29 -18 -19 -20 -38 -22 -227 -2 -114 -6 -209 -9 -212 -4 -4 -33 -8
-65 -9 l-59 -2 -5 215 c-4 175 -8 220 -21 240 -62 96 -110 174 -125 202 -9 18
-51 85 -92 148 -76 116 -88 153 -62 185 10 12 27 15 63 13 48 -3 51 -5 76 -50z"/>
</g> -->


</svg>
